<svg xmlns="http://www.w3.org/2000/svg" xmlns:svg="http://www.w3.org/2000/svg" id="svg4397" width="32" height="32" version="1.1" viewBox="0 0 32 32"><metadata id="metadata4403"/><title id="title4393">pin</title><path id="pin" d="m 21.105612,2.0201322 c -0.991,-0.914 -2.244,-1.15700003 -2.81,-0.544 -0.425001,0.461 -0.336001,1.269 0.154,2.03 l -9.2670007,10.0459998 -0.832,-0.767 c -0.991,-0.914 -2.279,-1.119 -2.887,-0.46 -0.608,0.659 -0.3,1.926 0.691,2.841 l 4.2659997,3.935 -5.6049997,6.076 -2.886,5.685 5.33,-3.431 5.6049997,-6.076 4.266,3.935 c 0.991001,0.914 2.279001,1.119 2.887001,0.46 0.608,-0.659 0.3,-1.926 -0.691,-2.84 l -0.832,-0.767 9.267,-10.046 c 0.798,0.427 1.611,0.45 2.036,-0.01 0.566,-0.613 0.223,-1.843 -0.768,-2.7569998 z"/></svg>