<svg xmlns="http://www.w3.org/2000/svg" xmlns:svg="http://www.w3.org/2000/svg" id="svg4397" width="32" height="32" version="1.1" viewBox="0 0 32 32"><metadata id="metadata4403"/><title id="title4393">pin</title><g id="pinned" transform="matrix(0.8793794,0,0,0.86626392,1.9299296,2.1397773)" style="stroke-width:1.14574182"><path id="path4419" d="m 14.585,4.783 c -6.352,0 -11.502,5.291 -11.503,11.839 -10e-4,6.548 5.15,11.839 11.503,11.839 5.585,0 10.241,-4.09 11.285,-9.529 -1.56,1.407 -3.645,2.271 -5.934,2.277 h -0.001 c 0,0 0,0 0,0 -4.877,0 -8.831,-3.896 -8.831,-8.701 0,0 0,0 0,0 v 0 c 0.004,-3.299 1.87,-6.168 4.618,-7.64 L 15.769,4.845 C 15.38,4.804 14.985,4.783 14.586,4.783 Z M 7.976,6.077 C 3.918,8.271 1.208,12.493 1.205,17.349 v 0 c 0,0 0,0 0,0 0,7.058 5.722,12.78 12.78,12.78 0,0 0,0 0,0 v 0 C 20.787,30.12 26.343,24.8 26.728,18.093 l 0.002,-0.034 c -0.012,0.013 -0.018,0.02 -0.025,0.026 L 26.71,18.08 c -0.705,6.234 -5.861,11.086 -12.124,11.086 -6.744,0 -12.21,-5.626 -12.21,-12.545 0,-4.419 2.232,-8.309 5.6,-10.544 z" style="stroke-width:1.14574182"/><path id="path4421" d="m 21.596,1.871 c -5.08,0 -9.198,4.119 -9.198,9.199 0,0 0,0 0,0 v 0 c 0,5.08 4.118,9.198 9.198,9.198 v 0 c 0,0 0,0 0,0 5.08,0 9.198,-4.118 9.199,-9.198 v 0 c 0,0 0,0 0,0 0,-5.08 -4.119,-9.199 -9.199,-9.199 0,0 0,0 0,0 z m 0.482,1.32 c 0.015,0 0.036,0 0.057,0.001 h 0.004 c 0,0 0,0 0,0 4.348,0.099 7.794,3.653 7.696,7.937 0,0 0,0 0,0 v 0 c -0.037,1.482 -0.494,2.856 -1.255,4.015 l 0.02,-0.033 c 0.383,-0.881 0.618,-1.905 0.646,-2.981 v -0.011 c 0.001,-0.056 0.002,-0.121 0.002,-0.187 0,-4.464 -3.567,-8.096 -8.006,-8.201 h -0.01 C 21.18,3.73 21.118,3.729 21.057,3.729 c -1.25,0 -2.434,0.279 -3.494,0.779 l 0.05,-0.021 C 18.869,3.655 20.415,3.169 22.072,3.19 h 0.004 z" style="stroke-width:1.14574182"/></g></svg>